M48
; DRILL file {KiCad 7.0.1-0} date 2023 December 30, Saturday 08:14:22
; FORMAT={-:-/ absolute / metric / decimal}
; #@! TF.CreationDate,2023-12-30T08:14:22+01:00
; #@! TF.GenerationSoftware,Kicad,Pcbnew,7.0.1-0
; #@! TF.FileFunction,Plated,1,2,PTH
FMAT,2
METRIC
; #@! TA.AperFunction,Plated,PTH,ViaDrill
T1C0.700
; #@! TA.AperFunction,Plated,PTH,ComponentDrill
T2C0.800
; #@! TA.AperFunction,Plated,PTH,ComponentDrill
T3C0.900
; #@! TA.AperFunction,Plated,PTH,ComponentDrill
T4C1.000
; #@! TA.AperFunction,Plated,PTH,ComponentDrill
T5C1.100
; #@! TA.AperFunction,Plated,PTH,ComponentDrill
T6C1.200
; #@! TA.AperFunction,Plated,PTH,ComponentDrill
T7C1.520
; #@! TA.AperFunction,Plated,PTH,ComponentDrill
T8C3.200
%
G90
G05
T1
X87.757Y-93.853
X94.082Y-120.447
X94.082Y-122.123
X94.082Y-123.749
X95.91Y-81.432
X96.317Y-120.447
X96.368Y-122.174
X96.418Y-123.749
X97.79Y-72.898
X98.603Y-67.412
X98.704Y-120.447
X98.704Y-122.123
X98.704Y-123.749
X99.625Y-91.924
X103.734Y-75.641
X103.988Y-67.361
X105.312Y-98.179
X107.633Y-86.169
X108.153Y-102.667
X109.525Y-67.31
X110.885Y-77.357
X110.947Y-89.283
X111.404Y-102.362
X111.963Y-98.857
X116.434Y-90.532
X116.434Y-94.082
X117.196Y-75.262
X119.075Y-75.262
X119.126Y-86.36
X123.887Y-80.75
X125.578Y-81.795
X126.169Y-76.65
X127.187Y-83.322
X127.457Y-67.361
X127.864Y-61.519
X136.195Y-61.468
X140.513Y-115.062
X141.478Y-100.127
X142.799Y-109.931
X145.263Y-97.815
X146.507Y-110.846
X146.609Y-104.242
X157.623Y-81.119
X157.988Y-66.243
X158.039Y-87.528
X158.756Y-104.004
X158.88Y-97.434
X159.295Y-74.912
X159.853Y-83.939
X160.072Y-107.239
X160.223Y-69.19
X160.274Y-93.929
X166.167Y-74.676
X167.589Y-96.418
X168.097Y-94.793
X182.016Y-91.237
X182.067Y-86.868
X182.118Y-81.917
X182.169Y-110.998
X182.22Y-72.949
X182.27Y-103.683
X182.321Y-95.402
X182.321Y-115.265
X182.626Y-67.056
X182.677Y-61.112
X183.693Y-91.211
X183.744Y-86.843
X184.658Y-81.917
X184.709Y-73.0
X184.912Y-67.056
X184.963Y-61.112
X185.064Y-103.683
X185.115Y-95.453
X185.115Y-115.265
X185.166Y-110.998
X185.522Y-91.211
X185.572Y-86.843
X192.735Y-93.218
X192.786Y-95.402
X192.989Y-118.72
X193.04Y-68.682
X193.04Y-116.637
X193.091Y-70.561
X194.97Y-93.269
X195.021Y-70.561
X195.021Y-95.402
X195.072Y-68.58
X195.072Y-116.637
X195.123Y-118.72
X197.307Y-116.586
X197.358Y-118.77
X197.409Y-70.612
X197.46Y-68.529
X197.46Y-93.218
X197.46Y-95.453
X200.609Y-83.007
X200.609Y-84.531
X200.66Y-94.285
X200.66Y-106.985
X200.711Y-95.961
X200.711Y-108.61
X200.812Y-70.561
X200.863Y-72.034
X203.2Y-82.956
X203.251Y-84.48
X203.352Y-72.136
X203.403Y-70.561
X203.403Y-106.934
X203.403Y-108.61
X203.505Y-94.285
X203.505Y-96.063
X206.248Y-116.891
X206.299Y-118.77
X206.451Y-69.494
X206.451Y-71.628
X206.807Y-93.574
X206.807Y-95.504
X208.331Y-118.77
X208.382Y-116.891
X208.432Y-69.494
X208.483Y-71.628
X208.94Y-95.606
X209.042Y-93.574
T2
X97.21Y-109.794
X99.71Y-109.794
X101.206Y-84.603
X101.206Y-92.223
X103.114Y-70.297
X103.114Y-80.457
X103.746Y-84.603
X103.746Y-92.223
X103.789Y-109.667
X106.286Y-84.603
X106.286Y-92.223
X106.289Y-109.667
X106.416Y-70.297
X106.416Y-80.457
X108.204Y-95.062
X108.204Y-105.222
X108.826Y-84.603
X108.826Y-92.223
X109.7Y-70.252
X109.7Y-80.412
X111.366Y-84.603
X111.366Y-92.223
X111.379Y-95.062
X111.379Y-105.222
X112.766Y-110.81
X112.766Y-114.031
X112.766Y-117.206
X113.02Y-70.297
X113.02Y-80.457
X113.906Y-84.603
X113.906Y-92.223
X114.987Y-97.938
X116.446Y-84.603
X116.446Y-92.223
X116.573Y-78.761
X117.487Y-97.938
X118.986Y-84.603
X118.986Y-92.223
X119.073Y-78.761
X121.282Y-95.398
X121.282Y-105.558
X121.526Y-84.603
X121.526Y-92.223
X122.926Y-110.81
X122.926Y-114.031
X122.926Y-117.206
X123.942Y-78.806
X124.066Y-84.603
X124.066Y-92.223
X124.457Y-95.398
X124.457Y-105.558
X126.606Y-84.603
X126.606Y-92.223
X127.368Y-114.112
X127.368Y-117.287
X127.371Y-110.937
X127.635Y-95.443
X127.635Y-105.603
X129.146Y-84.603
X129.146Y-92.223
X131.686Y-84.603
X131.686Y-92.223
X134.102Y-78.806
X134.226Y-84.603
X134.226Y-92.223
X137.528Y-114.112
X137.528Y-117.287
X137.531Y-110.937
X149.215Y-61.788
X149.215Y-63.788
X149.215Y-69.567
X149.215Y-71.567
X149.85Y-106.016
X149.85Y-108.016
X149.85Y-113.702
X149.85Y-115.702
X149.86Y-84.013
X149.86Y-86.013
X149.86Y-91.252
X149.86Y-93.252
X155.438Y-59.153
X155.438Y-61.693
X155.438Y-64.233
X155.438Y-66.773
X155.438Y-69.313
X155.438Y-71.853
X155.438Y-74.393
X155.438Y-103.505
X155.438Y-106.045
X155.438Y-108.585
X155.438Y-111.125
X155.438Y-113.665
X155.438Y-116.205
X155.438Y-118.745
X155.448Y-81.214
X155.448Y-83.754
X155.448Y-86.294
X155.448Y-88.834
X155.448Y-91.374
X155.448Y-93.914
X155.448Y-96.454
X163.058Y-59.153
X163.058Y-61.693
X163.058Y-64.233
X163.058Y-66.773
X163.058Y-69.313
X163.058Y-71.853
X163.058Y-74.393
X163.058Y-103.505
X163.058Y-106.045
X163.058Y-108.585
X163.058Y-111.125
X163.058Y-113.665
X163.058Y-116.205
X163.058Y-118.745
X163.068Y-81.214
X163.068Y-83.754
X163.068Y-86.294
X163.068Y-88.834
X163.068Y-91.374
X163.068Y-93.914
X163.068Y-96.454
X168.138Y-68.424
X168.138Y-70.424
X168.148Y-90.649
X168.148Y-92.649
X169.281Y-112.62
X169.281Y-114.62
X178.171Y-104.841
X178.171Y-108.016
X178.171Y-117.541
X178.171Y-120.716
X178.253Y-94.811
X178.253Y-97.986
X178.38Y-80.838
X178.38Y-84.013
X178.552Y-56.581
X178.552Y-59.756
X178.634Y-69.662
X178.634Y-72.837
X188.331Y-104.841
X188.331Y-108.016
X188.331Y-117.541
X188.331Y-120.716
X188.413Y-94.811
X188.413Y-97.986
X188.54Y-80.838
X188.54Y-84.013
X188.712Y-56.581
X188.712Y-59.756
X188.794Y-69.662
X188.794Y-72.837
T3
X92.568Y-70.297
X92.568Y-78.806
X95.108Y-70.297
X95.108Y-78.806
X142.865Y-61.915
X142.865Y-72.075
X143.129Y-84.14
X143.129Y-94.3
X143.373Y-106.365
X143.373Y-116.525
T4
X91.821Y-86.172
X91.821Y-88.712
X91.821Y-91.252
X94.361Y-86.172
X94.361Y-88.712
X94.361Y-91.252
X98.806Y-59.07
X98.806Y-61.61
X98.806Y-64.15
X121.788Y-70.932
X124.328Y-70.932
X128.133Y-58.994
X130.673Y-58.994
X131.43Y-71.186
X133.213Y-58.994
X133.97Y-71.186
X135.753Y-58.994
T5
X99.685Y-117.597
X102.225Y-117.597
X103.42Y-59.157
X103.42Y-63.657
X104.765Y-117.597
X109.92Y-59.157
X109.92Y-63.657
X115.104Y-59.157
X115.104Y-63.657
X121.604Y-59.157
X121.604Y-63.657
X210.582Y-104.968
X210.582Y-107.508
X210.582Y-110.048
X210.627Y-57.216
X210.627Y-59.756
X210.627Y-62.296
X210.627Y-81.219
X210.627Y-83.759
X210.627Y-86.299
X212.461Y-92.141
X212.461Y-94.681
X212.461Y-97.221
X212.461Y-115.763
X212.461Y-118.303
X212.461Y-120.843
X212.517Y-68.011
X212.517Y-70.551
X212.517Y-73.091
T6
X195.017Y-88.842
X195.144Y-112.718
X195.264Y-64.331
X202.517Y-88.842
X202.644Y-112.718
X202.764Y-64.331
T7
X92.202Y-98.618
X92.202Y-103.698
X225.034Y-83.886
X225.034Y-88.966
X225.034Y-94.046
T8
X89.299Y-120.287
X89.376Y-58.166
X224.917Y-120.65
X225.248Y-57.64
T0
M30
