%TF.GenerationSoftware,KiCad,Pcbnew,7.0.1-0*%
%TF.CreationDate,2023-12-30T08:15:01+01:00*%
%TF.ProjectId,BLDC ESC,424c4443-2045-4534-932e-6b696361645f,0.2*%
%TF.SameCoordinates,Original*%
%TF.FileFunction,Other,User*%
%FSLAX46Y46*%
G04 Gerber Fmt 4.6, Leading zero omitted, Abs format (unit mm)*
G04 Created by KiCad (PCBNEW 7.0.1-0) date 2023-12-30 08:15:01*
%MOMM*%
%LPD*%
G01*
G04 APERTURE LIST*
%ADD10C,0.050000*%
G04 APERTURE END LIST*
D10*
%TO.C,C13*%
X107789000Y-109667113D02*
G75*
G03*
X107789000Y-109667113I-2750000J0D01*
G01*
%TO.C,R27*%
X106704000Y-106272113D02*
X109704000Y-106272113D01*
X109704000Y-106272113D02*
X109704000Y-94012113D01*
X106704000Y-94012113D02*
X106704000Y-106272113D01*
X109704000Y-94012113D02*
X106704000Y-94012113D01*
%TO.C,R19*%
X126135000Y-106653113D02*
X129135000Y-106653113D01*
X129135000Y-106653113D02*
X129135000Y-94393113D01*
X126135000Y-94393113D02*
X126135000Y-106653113D01*
X129135000Y-94393113D02*
X126135000Y-94393113D01*
%TO.C,R6*%
X189762000Y-61256113D02*
X189762000Y-58256113D01*
X189762000Y-58256113D02*
X177502000Y-58256113D01*
X177502000Y-61256113D02*
X189762000Y-61256113D01*
X177502000Y-58256113D02*
X177502000Y-61256113D01*
%TO.C,R21*%
X111716000Y-112530562D02*
X111716000Y-115530562D01*
X111716000Y-115530562D02*
X123976000Y-115530562D01*
X123976000Y-112530562D02*
X111716000Y-112530562D01*
X123976000Y-115530562D02*
X123976000Y-112530562D01*
%TO.C,R18*%
X122957221Y-106607664D02*
X125957221Y-106607664D01*
X125957221Y-106607664D02*
X125957221Y-94347664D01*
X122957221Y-94347664D02*
X122957221Y-106607664D01*
X125957221Y-94347664D02*
X122957221Y-94347664D01*
%TO.C,REF\u002A\u002A*%
X228298199Y-57639949D02*
G75*
G03*
X228298199Y-57639949I-3050000J0D01*
G01*
%TO.C,Q2*%
X214027000Y-54506113D02*
X209117000Y-54506113D01*
X209117000Y-54506113D02*
X209117000Y-65006113D01*
X214027000Y-65006113D02*
X214027000Y-54506113D01*
X209117000Y-65006113D02*
X214027000Y-65006113D01*
%TO.C,J5*%
X137553000Y-57194113D02*
X126353000Y-57194113D01*
X126353000Y-57194113D02*
X126353000Y-60794113D01*
X137553000Y-60794113D02*
X137553000Y-57194113D01*
X126353000Y-60794113D02*
X137553000Y-60794113D01*
%TO.C,U3*%
X154338000Y-101955000D02*
X154338000Y-120305000D01*
X154338000Y-120305000D02*
X164138000Y-120305000D01*
X164138000Y-101955000D02*
X154338000Y-101955000D01*
X164138000Y-120305000D02*
X164138000Y-101955000D01*
%TO.C,J4*%
X126128000Y-69132113D02*
X119978000Y-69132113D01*
X119978000Y-69132113D02*
X119978000Y-72732113D01*
X126128000Y-72732113D02*
X126128000Y-69132113D01*
X119978000Y-72732113D02*
X126128000Y-72732113D01*
%TO.C,R1*%
X189462551Y-96310892D02*
X189462551Y-93310892D01*
X189462551Y-93310892D02*
X177202551Y-93310892D01*
X177202551Y-96310892D02*
X189462551Y-96310892D01*
X177202551Y-93310892D02*
X177202551Y-96310892D01*
%TO.C,R10*%
X177329551Y-79338113D02*
X177329551Y-82338113D01*
X177329551Y-82338113D02*
X189589551Y-82338113D01*
X189589551Y-79338113D02*
X177329551Y-79338113D01*
X189589551Y-82338113D02*
X189589551Y-79338113D01*
%TO.C,C5*%
X152610000Y-92252113D02*
G75*
G03*
X152610000Y-92252113I-2750000J0D01*
G01*
%TO.C,R20*%
X111716000Y-109310113D02*
X111716000Y-112310113D01*
X111716000Y-112310113D02*
X123976000Y-112310113D01*
X123976000Y-109310113D02*
X111716000Y-109310113D01*
X123976000Y-112310113D02*
X123976000Y-109310113D01*
%TO.C,C16*%
X206263551Y-64330892D02*
G75*
G03*
X206263551Y-64330892I-7250000J0D01*
G01*
%TO.C,D1*%
X141265000Y-73225113D02*
X144465000Y-73225113D01*
X144465000Y-73225113D02*
X144465000Y-60765113D01*
X141265000Y-60765113D02*
X141265000Y-73225113D01*
X144465000Y-60765113D02*
X141265000Y-60765113D01*
%TO.C,C7*%
X152600000Y-107016113D02*
G75*
G03*
X152600000Y-107016113I-2750000J0D01*
G01*
%TO.C,Q1*%
X209117000Y-75801113D02*
X214027000Y-75801113D01*
X214027000Y-75801113D02*
X214027000Y-65301113D01*
X209117000Y-65301113D02*
X209117000Y-75801113D01*
X214027000Y-65301113D02*
X209117000Y-65301113D01*
%TO.C,R12*%
X177121000Y-103341113D02*
X177121000Y-106341113D01*
X177121000Y-106341113D02*
X189381000Y-106341113D01*
X189381000Y-103341113D02*
X177121000Y-103341113D01*
X189381000Y-106341113D02*
X189381000Y-103341113D01*
%TO.C,C4*%
X151965000Y-70567113D02*
G75*
G03*
X151965000Y-70567113I-2750000J0D01*
G01*
%TO.C,U1*%
X154338000Y-57603113D02*
X154338000Y-75953113D01*
X154338000Y-75953113D02*
X164138000Y-75953113D01*
X164138000Y-57603113D02*
X154338000Y-57603113D01*
X164138000Y-75953113D02*
X164138000Y-57603113D01*
%TO.C,C6*%
X152600000Y-114702226D02*
G75*
G03*
X152600000Y-114702226I-2750000J0D01*
G01*
%TO.C,REF\u002A\u002A*%
X92426250Y-58166000D02*
G75*
G03*
X92426250Y-58166000I-3050000J0D01*
G01*
%TO.C,Q6*%
X213982000Y-102258113D02*
X209072000Y-102258113D01*
X209072000Y-102258113D02*
X209072000Y-112758113D01*
X213982000Y-112758113D02*
X213982000Y-102258113D01*
X209072000Y-112758113D02*
X213982000Y-112758113D01*
%TO.C,R14*%
X126318221Y-115787113D02*
X126318221Y-118787113D01*
X126318221Y-118787113D02*
X138578221Y-118787113D01*
X138578221Y-115787113D02*
X126318221Y-115787113D01*
X138578221Y-118787113D02*
X138578221Y-115787113D01*
%TO.C,C1*%
X170888000Y-69424113D02*
G75*
G03*
X170888000Y-69424113I-2750000J0D01*
G01*
%TO.C,SW2*%
X101920000Y-57657113D02*
X102170000Y-57657113D01*
X101920000Y-57907113D02*
X101920000Y-57657113D01*
X101920000Y-64907113D02*
X101920000Y-57907113D01*
X101920000Y-64907113D02*
X101920000Y-65157113D01*
X101920000Y-65157113D02*
X102170000Y-65157113D01*
X102170000Y-57657113D02*
X111170000Y-57657113D01*
X111170000Y-57657113D02*
X111420000Y-57657113D01*
X111170000Y-65157113D02*
X102170000Y-65157113D01*
X111170000Y-65157113D02*
X111420000Y-65157113D01*
X111420000Y-57657113D02*
X111420000Y-57907113D01*
X111420000Y-57907113D02*
X111420000Y-64907113D01*
X111420000Y-65157113D02*
X111420000Y-64907113D01*
%TO.C,C9*%
X151965000Y-62788113D02*
G75*
G03*
X151965000Y-62788113I-2750000J0D01*
G01*
%TO.C,J2*%
X96202000Y-95908113D02*
X88202000Y-95908113D01*
X96202000Y-95908113D02*
X96202000Y-106408113D01*
X88202000Y-106408113D02*
X88202000Y-95908113D01*
X88202000Y-106408113D02*
X96202000Y-106408113D01*
%TO.C,J3*%
X129630000Y-72986113D02*
X135780000Y-72986113D01*
X135780000Y-72986113D02*
X135780000Y-69386113D01*
X129630000Y-69386113D02*
X129630000Y-72986113D01*
X135780000Y-69386113D02*
X129630000Y-69386113D01*
%TO.C,REF\u002A\u002A*%
X227967049Y-120650049D02*
G75*
G03*
X227967049Y-120650049I-3050000J0D01*
G01*
%TO.C,U2*%
X154348000Y-79664113D02*
X154348000Y-98014113D01*
X154348000Y-98014113D02*
X164148000Y-98014113D01*
X164148000Y-79664113D02*
X154348000Y-79664113D01*
X164148000Y-98014113D02*
X164148000Y-79664113D01*
%TO.C,C3*%
X170898000Y-91649113D02*
G75*
G03*
X170898000Y-91649113I-2750000J0D01*
G01*
%TO.C,R2*%
X189589551Y-85513113D02*
X189589551Y-82513113D01*
X189589551Y-82513113D02*
X177329551Y-82513113D01*
X177329551Y-85513113D02*
X189589551Y-85513113D01*
X177329551Y-82513113D02*
X177329551Y-85513113D01*
%TO.C,R11*%
X177121000Y-119216113D02*
X177121000Y-122216113D01*
X177121000Y-122216113D02*
X189381000Y-122216113D01*
X189381000Y-119216113D02*
X177121000Y-119216113D01*
X189381000Y-122216113D02*
X189381000Y-119216113D01*
%TO.C,C14*%
X206016551Y-88841892D02*
G75*
G03*
X206016551Y-88841892I-7250000J0D01*
G01*
%TO.C,C2*%
X172031000Y-113620113D02*
G75*
G03*
X172031000Y-113620113I-2750000J0D01*
G01*
%TO.C,C10*%
X101209888Y-109794113D02*
G75*
G03*
X101209888Y-109794113I-2750000J0D01*
G01*
%TO.C,Q4*%
X214027000Y-78509113D02*
X209117000Y-78509113D01*
X209117000Y-78509113D02*
X209117000Y-89009113D01*
X214027000Y-89009113D02*
X214027000Y-78509113D01*
X209117000Y-89009113D02*
X214027000Y-89009113D01*
%TO.C,R22*%
X111716000Y-115705562D02*
X111716000Y-118705562D01*
X111716000Y-118705562D02*
X123976000Y-118705562D01*
X123976000Y-115705562D02*
X111716000Y-115705562D01*
X123976000Y-118705562D02*
X123976000Y-115705562D01*
%TO.C,R8*%
X177502000Y-55081113D02*
X177502000Y-58081113D01*
X177502000Y-58081113D02*
X189762000Y-58081113D01*
X189762000Y-55081113D02*
X177502000Y-55081113D01*
X189762000Y-58081113D02*
X189762000Y-55081113D01*
%TO.C,R26*%
X104614000Y-69247113D02*
X101614000Y-69247113D01*
X101614000Y-69247113D02*
X101614000Y-81507113D01*
X104614000Y-81507113D02*
X104614000Y-69247113D01*
X101614000Y-81507113D02*
X104614000Y-81507113D01*
%TO.C,R17*%
X119782221Y-106607664D02*
X122782221Y-106607664D01*
X122782221Y-106607664D02*
X122782221Y-94347664D01*
X119782221Y-94347664D02*
X119782221Y-106607664D01*
X122782221Y-94347664D02*
X119782221Y-94347664D01*
%TO.C,J6*%
X96161000Y-93052113D02*
X96161000Y-84402113D01*
X96161000Y-84402113D02*
X90011000Y-84402113D01*
X90011000Y-93052113D02*
X96161000Y-93052113D01*
X90011000Y-84402113D02*
X90011000Y-93052113D01*
%TO.C,R9*%
X177202551Y-96485892D02*
X177202551Y-99485892D01*
X177202551Y-99485892D02*
X189462551Y-99485892D01*
X189462551Y-96485892D02*
X177202551Y-96485892D01*
X189462551Y-99485892D02*
X189462551Y-96485892D01*
%TO.C,C15*%
X206143551Y-112717892D02*
G75*
G03*
X206143551Y-112717892I-7250000J0D01*
G01*
%TO.C,J7*%
X97006000Y-57270000D02*
X97006000Y-65920000D01*
X97006000Y-65920000D02*
X100606000Y-65920000D01*
X100606000Y-57270000D02*
X97006000Y-57270000D01*
X100606000Y-65920000D02*
X100606000Y-57270000D01*
%TO.C,D5*%
X90618000Y-67047113D02*
X90618000Y-73547113D01*
X90618000Y-73547113D02*
X97068000Y-73547113D01*
X97068000Y-67047113D02*
X90618000Y-67047113D01*
X97068000Y-73547113D02*
X97068000Y-67047113D01*
%TO.C,J1*%
X221034000Y-96766113D02*
X229034000Y-96766113D01*
X221034000Y-96766113D02*
X221034000Y-81166113D01*
X229034000Y-81166113D02*
X229034000Y-96766113D01*
X229034000Y-81166113D02*
X221034000Y-81166113D01*
%TO.C,R3*%
X189381000Y-119041113D02*
X189381000Y-116041113D01*
X189381000Y-116041113D02*
X177121000Y-116041113D01*
X177121000Y-119041113D02*
X189381000Y-119041113D01*
X177121000Y-116041113D02*
X177121000Y-119041113D01*
%TO.C,R13*%
X122892000Y-77306113D02*
X122892000Y-80306113D01*
X122892000Y-80306113D02*
X135152000Y-80306113D01*
X135152000Y-77306113D02*
X122892000Y-77306113D01*
X135152000Y-80306113D02*
X135152000Y-77306113D01*
%TO.C,REF\u002A\u002A*%
X92349100Y-120287100D02*
G75*
G03*
X92349100Y-120287100I-3050000J0D01*
G01*
%TO.C,R24*%
X111199949Y-69201664D02*
X108199949Y-69201664D01*
X108199949Y-69201664D02*
X108199949Y-81461664D01*
X111199949Y-81461664D02*
X111199949Y-69201664D01*
X108199949Y-81461664D02*
X111199949Y-81461664D01*
%TO.C,C11*%
X118987108Y-97937664D02*
G75*
G03*
X118987108Y-97937664I-2750000J0D01*
G01*
%TO.C,Q5*%
X209061000Y-123553113D02*
X213971000Y-123553113D01*
X213971000Y-123553113D02*
X213971000Y-113053113D01*
X209061000Y-113053113D02*
X209061000Y-123553113D01*
X213971000Y-113053113D02*
X209061000Y-113053113D01*
%TO.C,R28*%
X109879000Y-106272113D02*
X112879000Y-106272113D01*
X112879000Y-106272113D02*
X112879000Y-94012113D01*
X109879000Y-94012113D02*
X109879000Y-106272113D01*
X112879000Y-94012113D02*
X109879000Y-94012113D01*
%TO.C,R23*%
X114520000Y-69247113D02*
X111520000Y-69247113D01*
X111520000Y-69247113D02*
X111520000Y-81507113D01*
X114520000Y-81507113D02*
X114520000Y-69247113D01*
X111520000Y-81507113D02*
X114520000Y-81507113D01*
%TO.C,C12*%
X120573221Y-78760664D02*
G75*
G03*
X120573221Y-78760664I-2750000J0D01*
G01*
%TO.C,R25*%
X107916000Y-69247113D02*
X104916000Y-69247113D01*
X104916000Y-69247113D02*
X104916000Y-81507113D01*
X107916000Y-81507113D02*
X107916000Y-69247113D01*
X104916000Y-81507113D02*
X107916000Y-81507113D01*
%TO.C,C8*%
X152610000Y-85013113D02*
G75*
G03*
X152610000Y-85013113I-2750000J0D01*
G01*
%TO.C,R4*%
X189381000Y-109516113D02*
X189381000Y-106516113D01*
X189381000Y-106516113D02*
X177121000Y-106516113D01*
X177121000Y-109516113D02*
X189381000Y-109516113D01*
X177121000Y-106516113D02*
X177121000Y-109516113D01*
%TO.C,U5*%
X96975000Y-114197113D02*
X96975000Y-119107113D01*
X96975000Y-119107113D02*
X107475000Y-119107113D01*
X107475000Y-114197113D02*
X96975000Y-114197113D01*
X107475000Y-119107113D02*
X107475000Y-114197113D01*
%TO.C,R5*%
X189843551Y-71162113D02*
X189843551Y-68162113D01*
X189843551Y-68162113D02*
X177583551Y-68162113D01*
X177583551Y-71162113D02*
X189843551Y-71162113D01*
X177583551Y-68162113D02*
X177583551Y-71162113D01*
%TO.C,R16*%
X126321000Y-109437113D02*
X126321000Y-112437113D01*
X126321000Y-112437113D02*
X138581000Y-112437113D01*
X138581000Y-109437113D02*
X126321000Y-109437113D01*
X138581000Y-112437113D02*
X138581000Y-109437113D01*
%TO.C,U4*%
X135776221Y-83502664D02*
X99676221Y-83502664D01*
X99676221Y-83502664D02*
X99676221Y-93302664D01*
X135776221Y-93302664D02*
X135776221Y-83502664D01*
X99676221Y-93302664D02*
X135776221Y-93302664D01*
%TO.C,SW1*%
X113604000Y-57657113D02*
X113854000Y-57657113D01*
X113604000Y-57907113D02*
X113604000Y-57657113D01*
X113604000Y-64907113D02*
X113604000Y-57907113D01*
X113604000Y-64907113D02*
X113604000Y-65157113D01*
X113604000Y-65157113D02*
X113854000Y-65157113D01*
X113854000Y-57657113D02*
X122854000Y-57657113D01*
X122854000Y-57657113D02*
X123104000Y-57657113D01*
X122854000Y-65157113D02*
X113854000Y-65157113D01*
X122854000Y-65157113D02*
X123104000Y-65157113D01*
X123104000Y-57657113D02*
X123104000Y-57907113D01*
X123104000Y-57907113D02*
X123104000Y-64907113D01*
X123104000Y-65157113D02*
X123104000Y-64907113D01*
%TO.C,D2*%
X141773000Y-117675113D02*
X144973000Y-117675113D01*
X144973000Y-117675113D02*
X144973000Y-105215113D01*
X141773000Y-105215113D02*
X141773000Y-117675113D01*
X144973000Y-105215113D02*
X141773000Y-105215113D01*
%TO.C,D3*%
X141529000Y-95450113D02*
X144729000Y-95450113D01*
X144729000Y-95450113D02*
X144729000Y-82990113D01*
X141529000Y-82990113D02*
X141529000Y-95450113D01*
X144729000Y-82990113D02*
X141529000Y-82990113D01*
%TO.C,R7*%
X177583551Y-71337113D02*
X177583551Y-74337113D01*
X177583551Y-74337113D02*
X189843551Y-74337113D01*
X189843551Y-71337113D02*
X177583551Y-71337113D01*
X189843551Y-74337113D02*
X189843551Y-71337113D01*
%TO.C,R15*%
X126318221Y-112612113D02*
X126318221Y-115612113D01*
X126318221Y-115612113D02*
X138578221Y-115612113D01*
X138578221Y-112612113D02*
X126318221Y-112612113D01*
X138578221Y-115612113D02*
X138578221Y-112612113D01*
%TO.C,D4*%
X90618000Y-75556113D02*
X90618000Y-82056113D01*
X90618000Y-82056113D02*
X97068000Y-82056113D01*
X97068000Y-75556113D02*
X90618000Y-75556113D01*
X97068000Y-82056113D02*
X97068000Y-75556113D01*
%TO.C,Q3*%
X209061000Y-99931113D02*
X213971000Y-99931113D01*
X213971000Y-99931113D02*
X213971000Y-89431113D01*
X209061000Y-89431113D02*
X209061000Y-99931113D01*
X213971000Y-89431113D02*
X209061000Y-89431113D01*
%TD*%
M02*
